# xmcd
#
# Track frame offsets: 
#        150
#        12034
#        29299
#        51324
#        68893
#        85731
#        103253
#        135196
#        163066
#        180767
#        196638
#        210558
#
# Disc length: 3087 seconds
#
# Revision: 0
# Processed by: cddbd v1.5.2PL0 Copyright (c) Steve Scherf et al.
# Submitted via: ExactAudioCopyFreeDBPlugin 1.0
#
DISCID=8f0c0d0c
DTITLE=the harcore bluesband - booze, blues and nothing to lose
DYEAR=2011
DGENRE=Blues
TTITLE0=by the way
TTITLE1=bad dog
TTITLE2=on my way back home
TTITLE3=down the drain
TTITLE4=since you´ve been gone
TTITLE5=booze, blues and nothing to lose
TTITLE6=burning down the flame
TTITLE7=stop
TTITLE8=swallow my pride
TTITLE9=bluesangels
TTITLE10=i smell trouble
TTITLE11=the blues song
EXTD=
EXTT0=
EXTT1=
EXTT2=
EXTT3=
EXTT4=
EXTT5=
EXTT6=
EXTT7=
EXTT8=
EXTT9=
EXTT10=
EXTT11=
PLAYORDER=
